<svg width="27" height="25" viewBox="0 0 27 25" fill="none" xmlns="http://www.w3.org/2000/svg">
<path d="M26.4374 8.66249H21.8248L16.5783 0.26831C16.4024 -0.0132597 16.0522 -0.0846672 15.7962 0.108847L14.869 0.80987C14.6129 1.00344 14.548 1.38867 14.724 1.6703L19.0941 8.66249H7.90582L12.276 1.6703C12.4519 1.38867 12.3871 1.00344 12.131 0.80987L11.2037 0.108847C10.9477 -0.0846672 10.5975 -0.0132597 10.4216 0.26831L5.17518 8.66249H0.562517C0.251859 8.66249 0 8.93948 0 9.28126V10.5187C0 10.8605 0.251859 11.1375 0.562517 11.1375H1.27617L4.71481 23.0255C5.01366 24.0569 5.87497 24.75 6.85878 24.75H20.1412C21.125 24.75 21.9864 24.0569 22.2852 23.0249L25.7238 11.1375H26.4375C26.7481 11.1375 27 10.8605 27 10.5187V9.28126C26.9999 8.93948 26.7481 8.66249 26.4374 8.66249Z" fill="#A21418"/>
</svg>
