<svg width="25" height="25" viewBox="0 0 21 21" fill="none" xmlns="http://www.w3.org/2000/svg">
<path fill-rule="evenodd" clip-rule="evenodd" d="M13.4364 5.03137H6.57331C5.47799 5.03137 4.58667 5.92264 4.58667 7.01801V13.8811C4.58667 14.9766 5.47799 15.8679 6.57331 15.8679H13.4364C14.5319 15.8679 15.4232 14.9766 15.4232 13.8811V7.01801C15.4232 5.92269 14.5319 5.03137 13.4364 5.03137ZM10.0047 14.0169C8.03788 14.0169 6.43747 12.4165 6.43747 10.4494C6.43747 8.48258 8.03788 6.88217 10.0047 6.88217C11.9718 6.88217 13.5722 8.48258 13.5722 10.4494C13.5722 12.4165 11.9718 14.0169 10.0047 14.0169ZM13.687 7.61985C13.2213 7.61985 12.8427 7.2412 12.8427 6.7758C12.8427 6.31035 13.2213 5.93171 13.687 5.93171C14.1524 5.93171 14.531 6.31035 14.531 6.7758C14.531 7.24125 14.1524 7.61985 13.687 7.61985Z" fill="#A21418"/>
<path fill-rule="evenodd" clip-rule="evenodd" d="M10.0048 8.38977C8.86933 8.38977 7.9447 9.31396 7.9447 10.4494C7.9447 11.5853 8.86933 12.5097 10.0048 12.5097C11.1407 12.5097 12.0646 11.5853 12.0646 10.4494C12.0646 9.31396 11.1407 8.38977 10.0048 8.38977Z" fill="#A21418"/>
<path fill-rule="evenodd" clip-rule="evenodd" d="M0 0.444702V20.4546H20.0099V0.444702H0ZM16.9305 13.8812C16.9305 15.8081 15.3634 17.3752 13.4365 17.3752H6.5734C4.64668 17.3752 3.07932 15.8081 3.07932 13.8812V7.0181C3.07932 5.09139 4.64668 3.52402 6.5734 3.52402H13.4365C15.3634 3.52402 16.9305 5.09139 16.9305 7.0181V13.8812Z" fill="#A21418"/>
</svg>
