<svg width="239" height="63" viewBox="0 0 239 63" fill="none" xmlns="http://www.w3.org/2000/svg">
<rect width="239" height="63" fill="#5B1717"/>
<path d="M206.25 37.6214H205.969C205.207 40.2495 203.518 41.8629 201.059 41.8877H197.556V34.8448H200.903C202.247 34.8841 203.087 35.874 203.087 37.1905V37.3985H203.387V31.1131H203.087V31.3058C203.087 32.6372 202.233 33.6271 200.864 33.6519H197.556V26.4556H201.748C203.431 26.4804 204.392 27.5542 204.392 29.2669V29.539H204.697V24.8025C204.237 24.9906 202.766 25.2528 201.67 25.2577H191.427V25.555H191.777C192.641 25.555 193.339 26.2183 193.354 27.1089V41.2295C193.334 42.1102 192.636 42.7784 191.777 42.7784H191.427V43.0753H205.052H205.12L206.25 37.6214ZM182.374 30.7418C181.282 30.0537 180.404 29.4848 180.486 28.3808C180.559 27.03 181.806 26.0698 183.674 26.0698C185.988 26.0698 187.294 27.2474 187.294 29.049H187.541L187.949 25.154H186.367C185.159 25.0006 183.557 24.8868 182.582 24.8868C179.618 24.8868 177.58 26.5499 177.332 29.3806C177.114 31.415 178.046 33.0383 179.909 34.2407L184.052 36.9135C185.542 37.8786 186.226 38.5616 186.226 39.5863C186.226 41.0413 185.129 42.2636 182.859 42.2834C179.749 42.2933 177.881 40.0465 178.046 37.3588H177.818C177.119 38.4822 176.716 40.7494 177.167 41.8828C178.002 42.8032 180.025 43.4664 182.534 43.4664C186.58 43.4664 189.196 41.442 189.375 38.0865C189.506 35.9683 188.463 34.5574 186.978 33.6271L182.374 30.7418V30.7418ZM169.696 25.2627V25.56H170.094C170.816 25.56 171.394 26.0599 171.423 26.8021V36.7948C171.398 40.2346 169.599 42.2834 166.556 42.2834C163.611 42.2834 161.864 40.1106 161.864 36.4682V26.8071C161.869 26.0649 162.451 25.56 163.175 25.56H163.592V25.2627H155.94V25.56H156.338C157.061 25.56 157.663 26.0649 157.667 26.8071V36.6563C157.667 40.9028 160.419 43.4664 166.013 43.4664C170.676 43.4664 173.344 40.878 173.344 36.6017V26.7872C173.359 26.0549 173.955 25.56 174.674 25.56H175.071V25.2627H169.696V25.2627ZM143.946 42.2934C140.419 42.2934 138.114 39.1901 138.114 34.1816C138.114 29.1532 140.419 26.05 143.946 26.05C147.493 26.05 149.778 29.1532 149.778 34.1816C149.778 39.1901 147.493 42.2934 143.946 42.2934ZM143.946 24.8868C137.789 24.8868 133.655 28.4354 133.655 34.1816C133.655 39.908 137.789 43.4664 143.946 43.4664C150.127 43.4664 154.257 39.908 154.257 34.1816C154.257 28.4354 150.127 24.8868 143.946 24.8868ZM131.938 43.0802L131.933 42.7833H131.564C130.545 42.7833 129.72 41.9518 129.701 40.9173V24.456C129.72 23.4219 130.545 22.5854 131.564 22.5854H131.933L131.938 22.2935H123.097L123.102 22.5854H123.466C124.475 22.5854 125.295 23.4368 125.334 24.456V32.108H115.892V24.456C115.921 23.4318 116.746 22.5903 117.76 22.5903H118.124L118.129 22.2935H109.289L109.294 22.5903H109.662C110.676 22.5903 111.501 23.4268 111.526 24.456V40.9173C111.506 41.9518 110.681 42.7833 109.662 42.7833H109.294L109.289 43.0802H118.129L118.124 42.7833H117.76C116.741 42.7833 115.911 41.9518 115.892 40.9173V33.36H125.334V40.9371C125.3 41.9617 124.48 42.7833 123.466 42.7833H123.102L123.097 43.0802H131.938Z" fill="#FEFEFE"/>
<path fill-rule="evenodd" clip-rule="evenodd" d="M101.846 38.9293C103.179 40.1163 105.129 41.8448 106.723 42.3312L107.024 42.4228L107.073 43.4943L106.647 43.53C103.81 43.7659 101.148 43.9211 98.5667 42.4963C96.8373 43.4934 94.8133 43.8282 92.8459 43.8282C88.4074 43.8282 82.258 42.268 82.258 36.6612C82.258 33.9054 83.9702 32.0109 86.3237 31.0621C85.6584 29.8624 85.2564 28.5801 85.2564 27.1734C85.2564 23.0148 89.2442 21.4154 92.7544 21.4213C94.7368 21.4244 97.6432 21.9825 98.8626 23.7182L98.9816 23.8874L97.8108 28.6983H96.7541L96.7511 28.2503C96.7356 26.1122 96.0327 23.5761 93.5156 23.5761C91.7799 23.5761 90.6437 24.8611 90.6437 26.604C90.6437 29.2095 93.6713 31.6833 95.4175 33.2381C96.721 34.3985 98.016 35.5784 99.3399 36.7167C99.6026 35.4191 99.5535 33.9604 99.0019 32.7824C98.7211 32.1832 98.3172 31.6788 97.6153 31.6879H96.7413V30.4886H104.433V31.6879H103.569C102.92 31.6806 102.98 32.2726 102.982 32.7883C103.037 34.8669 102.756 37.047 101.846 38.9293V38.9293ZM88.157 33.572C87.8111 34.3426 87.6988 35.1777 87.7417 36.0445C87.9164 39.5975 90.5933 41.6738 93.9424 41.6738C94.8544 41.6738 95.7183 41.4622 96.4945 41.0138C94.7903 39.6512 93.121 38.211 91.4845 36.77C90.342 35.7643 89.1783 34.7175 88.157 33.572V33.572Z" fill="#FEFEFE"/>
<path d="M87.3 36.0669C87.2226 34.5671 87.6105 33.5281 88.0718 32.7904C89.0905 34.0131 90.3714 35.2006 91.7735 36.4283C92.8558 37.3884 95.3009 39.5067 97.2563 41.0461C96.3686 41.7143 95.2624 42.1249 93.9426 42.1249C90.6093 42.1249 87.4942 40.086 87.3 36.0669V36.0669ZM106.597 42.7633C105.087 42.3031 103.428 40.9319 101.293 39.0365C102.264 37.2151 102.599 35.0129 102.54 32.8003C102.535 31.8551 102.681 31.2266 103.574 31.2365H103.991V30.9397H97.1838V31.2365H97.6155C98.3674 31.2266 98.9641 31.657 99.4011 32.5878C100.046 33.9684 100.104 35.8196 99.5948 37.5219C98.2657 36.3985 96.3589 34.6763 95.1266 33.5777C91.9336 30.7366 90.2015 28.9102 90.2015 26.6038C90.2015 24.5798 91.5652 23.1248 93.5157 23.1248C96.1501 23.1248 97.1741 25.5747 97.1935 28.247H97.4651L98.5032 23.9807C97.5089 22.5653 95.0196 21.8822 92.7536 21.8723C89.1245 21.8723 85.6988 23.5254 85.6988 27.1732C85.6988 28.663 86.1792 30.0138 86.9798 31.3006C85.015 31.9539 82.7004 33.543 82.7004 36.6611C82.7004 41.823 88.3823 43.3769 92.8461 43.3769C95.2673 43.3769 97.14 42.8576 98.5616 41.9764C101.342 43.6147 104.471 43.2582 106.611 43.08L106.597 42.7633V42.7633Z" fill="#FECC00"/>
<path d="M81.3597 24.7775C80.9864 24.9656 79.3901 25.2332 78.298 25.2332H67.5562C66.469 25.2332 64.9797 24.9656 64.4994 24.7775V29.4896H64.7953V29.2121C64.7953 27.5198 65.7608 26.4455 67.4589 26.4207H70.8261V41.2095C70.797 42.1051 70.0937 42.7832 69.2153 42.7832H68.9096V43.0801H76.9543V42.7832H76.6438C75.7751 42.7832 75.0573 42.115 75.0378 41.2343V26.4207H78.4002C80.1031 26.4455 81.0784 27.5198 81.0638 29.2121V29.4896H81.3646L81.3597 24.7775V24.7775ZM46.8527 25.2625V25.5599H47.2215C48.0562 25.5599 48.7351 26.2132 48.7497 27.1038V41.2343C48.7303 42.1199 48.0367 42.7832 47.2021 42.7832H46.8527V43.0801H54.8681V42.7832H54.5528C53.7765 42.7832 52.9711 42.1944 52.9711 41.2095V26.4902C53.3011 26.5001 53.8831 26.4654 54.6351 26.5001C55.6444 26.5497 57.5999 26.9702 57.7259 29.9002C57.7502 30.484 57.6821 30.9099 57.629 31.1423C57.1438 33.6369 55.8094 34.0971 54.6063 34.112H53.8588V34.3646C54.3975 34.4088 55.1154 34.9385 55.6055 36.1811C55.8726 37.1804 56.9107 39.1751 57.556 40.2345C58.9387 42.4565 60.4284 43.0801 63.5918 43.0801H66.0324V42.7832C64.8294 42.7782 64.1743 42.3379 63.0389 40.7592C62.0149 39.3732 61.171 37.9032 60.9233 37.4529C60.3798 36.537 59.2687 35.285 58.1142 34.9236C60.9817 34.5031 62.1556 32.2166 62.1556 30.128C62.1556 26.4257 59.0263 25.2625 55.7996 25.2625H46.8527V25.2625ZM30.8752 36.0029L33.859 28.7073L36.7026 36.0029H30.8752ZM35.1351 21.6991H34.8732C34.8051 22.5604 33.6507 25.1339 33.4419 25.5892L26.7122 41.1102C26.0912 42.2882 25.0867 42.7832 24.2618 42.7832H24V43.0801H30.2396V42.7881H29.9871C29.2351 42.7881 28.3961 42.11 28.8716 40.9225L30.3608 37.2499H37.1922L38.6284 40.9225C39.0703 42.11 38.2551 42.7832 37.5032 42.7832H37.2458V43.0801H46.5227V42.7832H46.2754C45.4214 42.7832 44.4217 42.2783 43.791 41.061L35.1351 21.6991V21.6991Z" fill="#FEFEFE"/>
</svg>
