<svg width="16" height="11" viewBox="0 0 16 11" fill="none" xmlns="http://www.w3.org/2000/svg">
<path d="M14.5938 0H1.4063C1.18983 0 0.987177 0.0465665 0.803833 0.12332L7.9688 6.39267L9.57471 5.04224C9.57471 5.04224 9.57483 5.04211 9.57486 5.04205C9.57489 5.042 9.57502 5.04194 9.57502 5.04194L15.1965 0.12343C15.0131 0.0466211 14.8103 0 14.5938 0Z" fill="#FBEDE6"/>
<path d="M15.8592 0.703613L10.5691 5.3322L15.859 9.96087C15.9467 9.80044 15.9999 9.62312 15.9999 9.43371V1.23058C15.9999 1.04128 15.9468 0.863984 15.8592 0.703613Z" fill="#FBEDE6"/>
<path d="M0.140937 0.703125C0.0532188 0.863551 0 1.04088 0 1.23029V9.43341C0 9.62271 0.0531562 9.80006 0.140812 9.96043L5.43091 5.33185L0.140937 0.703125Z" fill="#FBEDE6"/>
<path d="M9.90634 5.91216L8.30021 7.26275C8.20865 7.34287 8.08871 7.38293 7.96881 7.38293C7.8489 7.38293 7.72893 7.34287 7.6374 7.26275L6.09378 5.91211L0.803589 10.5407C0.986964 10.6175 1.18975 10.6642 1.40628 10.6642H14.5938C14.8102 10.6642 15.0129 10.6176 15.1962 10.5408L9.90634 5.91216Z" fill="#FBEDE6"/>
</svg>
