<svg width="11" height="12" viewBox="0 0 11 12" fill="none" xmlns="http://www.w3.org/2000/svg">
<path d="M10.9771 8.52392C10.946 8.43016 10.7481 8.29204 10.3834 8.10989C10.2846 8.05248 10.1438 7.97445 9.96166 7.87547C9.77934 7.77649 9.61386 7.68528 9.46551 7.60192C9.31685 7.51859 9.17759 7.43786 9.04746 7.35983C9.02666 7.34421 8.96156 7.2987 8.85217 7.223C8.74268 7.14753 8.65035 7.09151 8.57468 7.05497C8.49918 7.01866 8.4249 7.00038 8.35197 7.00038C8.24782 7.00038 8.11772 7.07465 7.96151 7.223C7.8053 7.37155 7.66201 7.5329 7.53186 7.70755C7.40168 7.88212 7.26361 8.04347 7.11792 8.19193C6.972 8.34045 6.85211 8.41464 6.75846 8.41464C6.71145 8.41464 6.65283 8.40153 6.58258 8.37567C6.51236 8.34965 6.45894 8.32734 6.42227 8.30936C6.38592 8.291 6.32356 8.25466 6.23494 8.19979C6.14617 8.14508 6.0968 8.11512 6.0864 8.10989C5.37282 7.71393 4.76083 7.26074 4.25031 6.75044C3.73996 6.23984 3.28672 5.6279 2.89087 4.91425C2.88567 4.90382 2.85564 4.85431 2.80099 4.76581C2.74626 4.67723 2.70978 4.6148 2.69156 4.57824C2.67333 4.54182 2.65119 4.4884 2.62519 4.4181C2.5992 4.34779 2.58614 4.28923 2.58614 4.24229C2.58614 4.14859 2.66039 4.02873 2.80885 3.88287C2.95728 3.73709 3.1188 3.599 3.29323 3.46887C3.4678 3.33874 3.62915 3.19545 3.77764 3.03925C3.92608 2.88296 4.00029 2.7528 4.00029 2.64865C4.00029 2.57577 3.98207 2.50147 3.94564 2.42597C3.90919 2.3503 3.8532 2.25797 3.77764 2.14853C3.70206 2.03914 3.65649 1.97409 3.64084 1.95316C3.56279 1.82303 3.48214 1.68371 3.3987 1.53525C3.31526 1.38681 3.22419 1.22136 3.12518 1.03907C3.02625 0.856866 2.94817 0.716176 2.89081 0.617219C2.70861 0.252673 2.5706 0.0546505 2.47681 0.0235076C2.44033 0.00788149 2.3856 0 2.31275 0C2.17203 0 1.98846 0.025998 1.7619 0.0781581C1.53525 0.130236 1.3569 0.184859 1.22667 0.242246C0.966222 0.351575 0.690178 0.669297 0.398453 1.1953C0.132809 1.68483 0 2.16935 0 2.64851C0 2.78904 0.00911297 2.92576 0.0273389 3.0587C0.0455649 3.19151 0.0781307 3.34129 0.125064 3.508C0.171915 3.67466 0.209708 3.79847 0.238278 3.87909C0.266876 3.95977 0.320268 4.10429 0.398426 4.31271C0.476474 4.52108 0.523408 4.64863 0.539034 4.69551C0.721321 5.206 0.937487 5.66173 1.18748 6.06284C1.59879 6.72954 2.1601 7.41854 2.87108 8.12957C3.58208 8.84054 4.27095 9.40183 4.9377 9.81331C5.33875 10.0633 5.79465 10.2794 6.30506 10.4618C6.35196 10.4774 6.47952 10.5242 6.6878 10.6025C6.89617 10.6806 7.04074 10.734 7.12142 10.7627C7.20212 10.7913 7.32596 10.8292 7.49248 10.8761C7.65936 10.923 7.809 10.9556 7.94181 10.974C8.0747 10.9919 8.21145 11.0012 8.352 11.0012C8.83113 11.0012 9.31568 10.8683 9.80529 10.6027C10.3312 10.3111 10.6489 10.035 10.7583 9.77436C10.8158 9.64426 10.8703 9.46586 10.9224 9.23922C10.9746 9.01268 11.0005 8.82913 11.0005 8.68844C11.0007 8.61529 10.9928 8.5607 10.9771 8.52392Z" fill="#A21418"/>
</svg>
