<svg width="57" height="71" viewBox="0 0 57 71" fill="none" xmlns="http://www.w3.org/2000/svg">
<path d="M56.1213 32.1353L55.2498 30.9441C54.2911 29.6368 54.2765 27.8646 55.2207 26.5427L56.0778 25.3371C57.3851 23.4923 56.775 20.9067 54.785 19.8317L53.4776 19.1345C52.0541 18.3646 51.2697 16.7813 51.5457 15.1834L51.7926 13.7163C52.1703 11.4793 50.4998 9.4166 48.2337 9.32944L46.7521 9.27134C45.1397 9.19871 43.7452 8.10926 43.2949 6.55498L42.8882 5.13143C42.2635 2.95253 39.8668 1.8195 37.775 2.72012L36.4096 3.30116C34.9279 3.9403 33.1993 3.56262 32.1099 2.35697L31.1221 1.25299C29.6114 -0.432025 26.9532 -0.417499 25.4715 1.29657L24.4983 2.41507C23.4379 3.63525 21.7093 4.04198 20.2131 3.43189L18.8477 2.86538C16.7559 1.99382 14.3736 3.17042 13.7781 5.34932L13.3859 6.77287C12.9646 8.32715 11.5847 9.44565 9.97227 9.54733L8.49062 9.63449C6.22456 9.76522 4.58313 11.857 5.00438 14.0794L5.26585 15.532C5.55637 17.1299 4.80102 18.7278 3.392 19.5122L2.09918 20.2385C0.109123 21.3424 -0.457391 23.9281 0.879 25.7583L1.75056 26.9495C2.70928 28.2568 2.7238 30.029 1.77961 31.3508L0.922579 32.5565C-0.38476 34.4013 0.225331 36.9869 2.21539 38.0619L3.52273 38.7591C4.94628 39.529 5.73068 41.1123 5.45469 42.7102L5.20775 44.1773C4.83007 46.4143 6.50056 48.477 8.76661 48.5641L10.2483 48.6223C11.8606 48.6949 13.2551 49.7843 13.7055 51.3386L14.1122 52.7622C14.7368 54.9411 17.1336 56.0741 19.2253 55.1735L20.5908 54.5924C22.0724 53.9533 23.801 54.331 24.8905 55.5366L25.8782 56.6406C27.3889 58.3256 30.0472 58.3111 31.5288 56.597L32.5021 55.4785C33.5625 54.2583 35.2911 53.8516 36.7872 54.4617L38.1527 55.0282C40.2444 55.8998 42.6267 54.7232 43.2223 52.5443L43.6145 51.1207C44.0357 49.5664 45.4157 48.4479 47.0281 48.3463L48.5097 48.2591C50.7758 48.1284 52.4172 46.0366 51.996 43.8142L51.7345 42.3615C51.444 40.7637 52.1993 39.1658 53.6083 38.3814L54.9012 37.6551C56.8912 36.5657 57.4577 33.9655 56.1213 32.1353ZM28.4784 47.8233C18.0632 47.8233 9.59459 39.3547 9.59459 28.9395C9.59459 18.5244 18.0632 10.0557 28.4784 10.0557C38.8935 10.0557 47.3622 18.5244 47.3622 28.9395C47.3622 39.3547 38.8935 47.8233 28.4784 47.8233Z" fill="#95575A"/>
<path d="M48.2045 52.4571L47.5508 52.5007L47.2313 53.6628C46.2871 57.1054 43.1349 59.5022 39.5761 59.5022C38.5302 59.5022 37.5134 59.2989 36.5547 58.9067L35.4507 58.4418L35.1021 58.8486L40.4912 68.6536C40.8108 69.2201 41.3628 69.6269 42.0019 69.7431L48.495 70.9487C49.5119 71.1376 50.5287 70.5856 50.9209 69.6123L53.3758 63.4824C53.6227 62.8723 53.5791 62.1895 53.2596 61.623L48.2045 52.4571Z" fill="#95575A"/>
<path d="M20.8525 59.0083C19.8502 59.4441 18.8043 59.662 17.7148 59.662C14.1996 59.662 11.0619 57.3088 10.0887 53.9388L9.75459 52.7912L8.59251 52.7477L3.71178 61.6375C3.39221 62.2041 3.34863 62.8868 3.59557 63.4969L6.05046 69.6268C6.44267 70.6001 7.45949 71.1521 8.47631 70.9632L14.9694 69.7576C15.6086 69.6414 16.1606 69.2346 16.4801 68.6681L22.0145 58.6016L21.971 58.558L20.8525 59.0083Z" fill="#95575A"/>
<path d="M20.5 28L27.5 34L37 22" stroke="#95575A" stroke-width="4" stroke-linecap="round" stroke-linejoin="round"/>
</svg>
