<svg width="72" height="49" viewBox="0 0 72 49" fill="none" xmlns="http://www.w3.org/2000/svg">
<path fill-rule="evenodd" clip-rule="evenodd" d="M51.3281 0.487675C57.5706 2.15348 59.9584 6.35115 62.9522 12.1287H51.3281V0.487675ZM14.8469 12.6139C16.0692 12.6139 16.9563 13.2923 16.9563 14.8779C16.9563 16.2152 16.0153 17.2998 14.853 17.3036H2.10938C0.944275 17.3036 0 18.3902 0 19.7294C0 21.0692 0.944275 22.1551 2.10938 22.1551H21.0938C22.2698 22.1551 23.2114 23.2404 23.2114 24.5809C23.2114 25.9207 22.2671 27.0066 21.102 27.0066H2.10938C0.944275 27.0066 0 28.0925 0 29.4323C0 30.7722 0.944275 31.8581 2.10938 31.8581H6.75V39.1353C6.75 40.4752 7.69427 41.5611 8.85938 41.5611H13.0995C13.8554 45.8427 17.1453 49 21.0234 49C24.9016 49 28.1915 45.8427 28.9473 41.5611H50.3652C51.121 45.8427 54.4109 49 58.2891 49C62.1672 49 65.4571 45.8427 66.213 41.5611H69.8906C71.0557 41.5611 72 40.4752 72 39.1353V24.5809C72 17.4635 65.4719 16.9909 65.4659 16.9802H49.2188C48.0536 16.9802 47.1094 15.8943 47.1094 14.5545V0H8.85938C7.69427 0 6.75 1.0859 6.75 2.42574V7.76238H4.21875C3.05365 7.76238 2.10938 8.84828 2.10938 10.1881C2.10938 11.528 3.05365 12.6139 4.21875 12.6139H14.8469ZM61.0236 36.5567C62.5336 38.2933 62.5336 41.11 61.0236 42.8466C58.5945 45.64 54.4219 43.6526 54.4219 39.7013C54.4219 35.7506 58.5945 33.7633 61.0236 36.5567ZM23.7579 36.5567C25.268 38.2933 25.268 41.11 23.7579 42.8466C21.3289 45.64 17.1562 43.6526 17.1562 39.7013C17.1562 35.7506 21.3289 33.7633 23.7579 36.5567Z" fill="#95575A"/>
</svg>
