<svg width="70" height="70" viewBox="0 0 70 70" fill="none" xmlns="http://www.w3.org/2000/svg">
<path d="M54.6607 25.7258C55.506 25.7258 56.322 25.8546 57.0899 26.093L64.0873 19.0956L60.826 15.8344L50.9346 25.7258H54.6607Z" fill="#95575A"/>
<path d="M68.7986 23.8071L66.9873 21.9958L60.6504 28.3328C62.0217 29.7996 62.8636 31.7673 62.8636 33.9289V35.5425L68.7986 29.6075C70.4004 28.0059 70.4004 25.4089 68.7986 23.8071Z" fill="#95575A"/>
<path d="M57.9256 12.9343L46.1927 1.20135C44.5909 -0.400449 41.9939 -0.400449 40.3923 1.20135L15.8677 25.726H45.134L57.9256 12.9343Z" fill="#95575A"/>
<path d="M10.7646 42.8291H17.013V47.4411H10.7646V42.8291Z" fill="#95575A"/>
<path d="M54.6607 29.8275H4.10156C1.83627 29.8275 0 31.6638 0 33.9291V65.8984C0 68.1637 1.83627 70 4.10156 70H54.6607C56.9259 70 58.7623 68.1637 58.7623 65.8984V33.9291C58.7623 31.6638 56.9259 29.8275 54.6607 29.8275ZM6.66285 38.7275H21.1143V51.5427H6.66285V38.7275ZM14.6419 61.0999H6.53529V56.9983H14.6419V61.0999ZM27.1701 61.0999H19.0635V56.9983H27.1701V61.0999ZM39.6986 61.0999H31.592V56.9983H39.6986V61.0999ZM52.227 61.0999H44.1204V56.9983H52.227V61.0999Z" fill="#95575A"/>
</svg>
