<svg width="36" height="7" viewBox="0 0 36 7" fill="none" xmlns="http://www.w3.org/2000/svg">
<path d="M0.264405 3.93997C0.304402 4.1116 0.344395 4.2489 0.504383 4.31756L3.86408 6.68609C4.10405 6.89205 4.50402 6.8234 4.704 6.54878C4.90398 6.27417 4.82399 5.89658 4.54401 5.69062L2.78417 4.42054L35.1012 4.42054C35.4212 4.45487 35.7012 4.18025 35.7012 3.80266C35.7012 3.42507 35.4212 3.15046 35.1012 3.15046L2.78417 3.15045L4.54401 1.88037C4.82399 1.67441 4.90398 1.29682 4.704 1.02221C4.58401 0.850575 4.38403 0.747594 4.22404 0.747594C4.10405 0.747594 3.98406 0.781921 3.86408 0.850575L0.504383 3.21911C0.384392 3.32209 0.304402 3.45939 0.264405 3.5967C0.264405 3.63103 0.264405 3.69968 0.264405 3.73401C0.264405 3.83699 0.224407 3.90564 0.264405 3.93997Z" fill="#95575A"/>
</svg>
