<svg width="55" height="55" viewBox="0 0 55 55" fill="none" xmlns="http://www.w3.org/2000/svg">
<path d="M27.5 11.4585C26.2328 11.4585 25.2085 12.4848 25.2085 13.75V27.5C25.2085 28.7651 26.2328 29.7915 27.5 29.7915H41.25C42.5173 29.7915 43.5415 28.7651 43.5415 27.5C43.5415 26.2348 42.5173 25.2085 41.25 25.2085H29.7915V13.75C29.7915 12.4848 28.7673 11.4585 27.5 11.4585Z" fill="#95575A"/>
<path d="M27.5 0C20.2125 0 13.1541 2.91046 7.91103 7.77088L2.93354 2.79591C2.44049 2.30328 1.7028 2.15641 1.06121 2.42245C0.419197 2.68806 0 3.31623 0 4.01028V18.9062C0 19.855 0.769997 20.625 1.71875 20.625H16.6147C17.3113 20.625 17.9369 20.2058 18.2026 19.5638C18.4686 18.9222 18.3217 18.182 17.8291 17.6915L11.1719 11.0321C15.5602 7.01263 21.4248 4.58347 27.5 4.58347C40.1363 4.58347 50.4165 14.8637 50.4165 27.5C50.4165 40.1363 40.1363 50.4165 27.5 50.4165C21.3719 50.4165 15.6223 48.0289 11.3116 43.6976C10.4178 42.7992 8.96511 42.7967 8.07133 43.6905C7.17293 44.5843 7.16831 46.0349 8.0621 46.9333C13.2414 52.1353 20.1437 55 27.5 55C42.6641 55 55 42.6641 55 27.5C55 12.3359 42.6641 0 27.5 0Z" fill="#95575A"/>
</svg>
